<svg xmlns="http://www.w3.org/2000/svg" viewBox="0 0 500 500" width="100%" height="100%">
  <rect width="500" height="500" fill="#000000"/>
  <!-- Sharp stylized Z mark -->
  <g fill="#ffffff">
    <polygon points="185,117 325,117 325,145 225,245 300,245 300,225 240,225 295,170 185,170"/>
    <polygon points="315,273 175,273 175,245 275,145 200,145 200,165 260,165 205,220 315,220"/>
  </g>
  <!-- ZEVRO text -->
  <g fill="#ffffff">
    <!-- Z with Slash -->
    <path d="M 63 296 L 115 296 L 115 306 L 80 340 L 115 340 L 115 350 L 63 350 L 63 340 L 98 306 L 63 306 Z"/>
    <!-- E with horizontal bars -->
    <path d="M 143 296 L 188 296 L 188 306 L 157 306 L 157 317 L 185 317 L 185 327 L 157 327 L 157 340 L 188 340 L 188 350 L 143 350 Z"/>
    <!-- V -->
    <path d="M 215 296 L 230 296 L 246 339 L 262 296 L 277 296 L 254 350 L 238 350 Z"/>
    <!-- R -->
    <path d="M 303 296 L 333 296 C 344 296 350 302 350 311 C 350 318 345 324 336 325 L 352 350 L 336 350 L 322 327 L 317 327 L 317 350 L 303 350 Z M 317 306 L 317 317 L 330 317 C 334 317 337 315 337 311 C 337 308 334 306 L 330 306 Z"/>
    <!-- O -->
    <path d="M 408 295 C 426 295 438 307 438 323 C 438 339 426 351 408 351 C 390 351 378 339 378 323 C 378 307 390 295 408 295 Z M 408 306 C 398 306 392 313 392 323 C 392 333 398 340 408 340 C 418 340 424 333 424 323 C 424 313 418 306 408 306 Z"/>
  </g>
  <!-- Tagline -->
  <text x="250" y="380" font-family="'Inter', sans-serif" font-size="16" font-weight="600" fill="#ffffff" letter-spacing="9" text-anchor="middle">WEAR YOUR EDGE</text>
  <line x1="63" y1="375" x2="135" y2="375" stroke="#ffffff" stroke-width="1"/>
  <line x1="365" y1="375" x2="438" y2="375" stroke="#ffffff" stroke-width="1"/>
</svg>
